<svg xmlns="http://www.w3.org/2000/svg" xmlns:xlink="http://www.w3.org/1999/xlink" width="100" zoomAndPan="magnify" viewBox="0 0 75 74.999997" height="100" preserveAspectRatio="xMidYMid meet" version="1.0"><defs><g/><clipPath id="id1"><path d="M 28.539062 26.796875 L 48.789062 26.796875 L 48.789062 47.046875 L 28.539062 47.046875 Z M 28.539062 26.796875 " clip-rule="nonzero"/></clipPath></defs><path stroke-linecap="round" transform="matrix(0.767528, 0, 0, 0.75, 5.171523, 35.732688)" fill="none" stroke-linejoin="miter" d="M 0.499219 0.00224976 L 12.215002 0.00224976 " stroke="#ffffff" stroke-width="1" stroke-opacity="1" stroke-miterlimit="4"/><path stroke-linecap="round" transform="matrix(0.767528, 0, 0, 0.75, 60.292571, 36.115917)" fill="none" stroke-linejoin="miter" d="M 0.499279 0.00169463 L 12.215062 0.00169463 " stroke="#ffffff" stroke-width="1" stroke-opacity="1" stroke-miterlimit="4"/><path stroke-linecap="round" transform="matrix(0.767528, 0, 0, 0.75, 5.171523, 43.497139)" fill="none" stroke-linejoin="miter" d="M 0.499219 -0.00139426 L 12.215002 -0.00139426 " stroke="#ffffff" stroke-width="1" stroke-opacity="1" stroke-miterlimit="4"/><path stroke-linecap="round" transform="matrix(0.767528, 0, 0, 0.75, 60.292571, 43.880364)" fill="none" stroke-linejoin="miter" d="M 0.499279 -0.00194396 L 12.215062 -0.00194396 " stroke="#ffffff" stroke-width="1" stroke-opacity="1" stroke-miterlimit="4"/><g clip-path="url(#id1)"><path fill="#ffffff" d="M 45.320312 37.636719 L 45.320312 46.640625 C 45.320312 46.867188 45.144531 47.046875 44.925781 47.046875 L 32.355469 47.046875 C 32.144531 47.046875 31.96875 46.867188 31.96875 46.640625 L 31.96875 37.636719 L 28.929688 37.636719 C 28.714844 37.636719 28.539062 37.457031 28.539062 37.238281 C 28.539062 37.113281 28.589844 37.007812 28.671875 36.933594 L 38.074219 26.960938 C 38.230469 26.796875 38.472656 26.796875 38.628906 26.949219 L 48.625 36.945312 C 48.78125 37.097656 48.785156 37.355469 48.632812 37.515625 C 48.558594 37.59375 48.453125 37.636719 48.351562 37.636719 Z M 36.640625 40.0625 L 40.625 40.0625 C 40.84375 40.0625 41.019531 40.246094 41.019531 40.46875 L 41.019531 40.503906 L 41.03125 46.234375 L 44.53125 46.234375 L 44.53125 37.238281 C 44.53125 37.011719 44.707031 36.832031 44.925781 36.832031 L 47.386719 36.832031 L 38.363281 27.808594 L 29.855469 36.832031 L 32.355469 36.832031 C 32.574219 36.832031 32.75 37.011719 32.75 37.238281 L 32.75 46.234375 L 36.253906 46.234375 L 36.253906 40.46875 C 36.253906 40.246094 36.429688 40.066406 36.640625 40.066406 Z M 40.238281 40.875 L 37.035156 40.875 L 37.03125 46.234375 L 40.25 46.234375 Z M 40.238281 40.875 " fill-opacity="1" fill-rule="nonzero"/></g><g fill="#ffffff" fill-opacity="1"><g transform="translate(19.273476, 25.848602)"><g><path d="M -0.00390625 -1.417969 L 0.582031 -1.996094 C 1.265625 -2.671875 1.304688 -3.433594 0.761719 -3.984375 C 0.195312 -4.558594 -0.578125 -4.550781 -1.253906 -3.882812 L -2.085938 -3.066406 C -2.21875 -2.9375 -2.238281 -2.746094 -2.113281 -2.621094 L 0.0351562 -0.4375 C 0.167969 -0.300781 0.351562 -0.34375 0.46875 -0.460938 C 0.582031 -0.574219 0.640625 -0.761719 0.5 -0.902344 Z M -1.457031 -2.890625 L -0.851562 -3.484375 C -0.464844 -3.867188 -0.03125 -3.859375 0.296875 -3.523438 C 0.601562 -3.214844 0.582031 -2.792969 0.183594 -2.398438 L -0.402344 -1.820312 Z M -1.457031 -2.890625 "/></g></g></g><g fill="#ffffff" fill-opacity="1"><g transform="translate(22.435885, 22.818551)"><g><path d="M 2.117188 -2.179688 L 0.480469 -1.035156 L -0.0664062 -1.8125 L 1.488281 -2.898438 C 1.652344 -3.011719 1.652344 -3.179688 1.574219 -3.292969 C 1.492188 -3.410156 1.328125 -3.46875 1.167969 -3.359375 L -0.386719 -2.273438 L -0.960938 -3.09375 L 0.679688 -4.238281 C 0.835938 -4.351562 0.839844 -4.535156 0.761719 -4.648438 C 0.679688 -4.765625 0.527344 -4.816406 0.355469 -4.699219 L -1.507812 -3.398438 C -1.695312 -3.265625 -1.726562 -3.054688 -1.625 -2.902344 L 0.0742188 -0.472656 C 0.183594 -0.316406 0.394531 -0.277344 0.582031 -0.40625 L 2.445312 -1.707031 C 2.621094 -1.828125 2.625 -2 2.546875 -2.113281 C 2.464844 -2.230469 2.28125 -2.292969 2.117188 -2.179688 Z M 2.117188 -2.179688 "/></g></g></g><g fill="#ffffff" fill-opacity="1"><g transform="translate(26.042326, 20.357473)"><g><path d="M 1.078125 -4.21875 L 1.855469 -2.546875 L 2.039062 -2.210938 L -0.578125 -3.566406 C -0.707031 -3.632812 -0.820312 -3.640625 -0.949219 -3.582031 C -1.117188 -3.503906 -1.214844 -3.324219 -1.121094 -3.117188 L 0.148438 -0.402344 C 0.234375 -0.210938 0.425781 -0.199219 0.585938 -0.273438 C 0.738281 -0.34375 0.855469 -0.5 0.765625 -0.691406 L 0.00390625 -2.320312 L -0.152344 -2.601562 L 2.390625 -1.296875 C 2.496094 -1.242188 2.652344 -1.238281 2.769531 -1.292969 C 2.941406 -1.371094 3.070312 -1.558594 2.972656 -1.765625 L 1.695312 -4.507812 C 1.613281 -4.683594 1.429688 -4.691406 1.277344 -4.621094 C 1.121094 -4.546875 1 -4.382812 1.078125 -4.21875 Z M 1.078125 -4.21875 "/></g></g></g><g fill="#ffffff" fill-opacity="1"><g transform="translate(30.285527, 18.446775)"><g><path d="M 1.808594 -3.960938 L 2.28125 -2.175781 L 2.398438 -1.8125 L 0.0664062 -3.613281 C -0.0507812 -3.699219 -0.160156 -3.730469 -0.300781 -3.691406 C -0.476562 -3.648438 -0.605469 -3.488281 -0.546875 -3.265625 L 0.214844 -0.371094 C 0.269531 -0.164062 0.453125 -0.121094 0.625 -0.164062 C 0.785156 -0.207031 0.929688 -0.339844 0.875 -0.542969 L 0.417969 -2.28125 L 0.3125 -2.585938 L 2.582031 -0.851562 C 2.679688 -0.777344 2.828125 -0.746094 2.957031 -0.78125 C 3.140625 -0.828125 3.296875 -0.988281 3.238281 -1.210938 L 2.46875 -4.132812 C 2.417969 -4.320312 2.242188 -4.363281 2.078125 -4.320312 C 1.910156 -4.277344 1.761719 -4.136719 1.808594 -3.960938 Z M 1.808594 -3.960938 "/></g></g></g><g fill="#ffffff" fill-opacity="1"><g transform="translate(34.816096, 17.333521)"><g><path d="M 0.296875 -3.527344 C 0.214844 -3.621094 0.105469 -3.671875 -0.0195312 -3.660156 C -0.253906 -3.640625 -0.425781 -3.371094 -0.230469 -3.152344 L 1.195312 -1.574219 L 1.292969 -0.457031 C 1.3125 -0.246094 1.472656 -0.128906 1.652344 -0.144531 C 1.800781 -0.15625 1.972656 -0.304688 1.957031 -0.515625 L 1.859375 -1.632812 L 2.960938 -3.414062 C 3.121094 -3.675781 2.90625 -3.914062 2.691406 -3.894531 C 2.5625 -3.882812 2.46875 -3.808594 2.398438 -3.691406 L 1.472656 -2.1875 Z M 0.296875 -3.527344 "/></g></g></g><g fill="#ffffff" fill-opacity="1"><g transform="translate(41.482558, 17.164918)"><g><path d="M 0.660156 0.109375 L 2.835938 0.472656 C 3.054688 0.507812 3.195312 0.394531 3.222656 0.246094 C 3.242188 0.109375 3.148438 -0.0546875 2.929688 -0.09375 L 1.078125 -0.402344 L 1.535156 -3.144531 C 1.566406 -3.339844 1.414062 -3.460938 1.253906 -3.488281 C 1.085938 -3.515625 0.90625 -3.449219 0.875 -3.257812 L 0.371094 -0.25 C 0.339844 -0.0546875 0.417969 0.0703125 0.660156 0.109375 Z M 0.660156 0.109375 "/></g></g></g><g fill="#ffffff" fill-opacity="1"><g transform="translate(45.439263, 17.855694)"><g><path d="M 2.980469 -2.890625 C 2.839844 -2.9375 2.742188 -2.9375 2.644531 -2.835938 L 0.0585938 -0.347656 C -0.109375 -0.171875 0.0390625 0.0742188 0.230469 0.140625 C 0.332031 0.175781 0.460938 0.171875 0.554688 0.078125 L 1.195312 -0.542969 L 2.9375 0.0585938 L 3.054688 0.941406 C 3.074219 1.0625 3.175781 1.15625 3.277344 1.191406 C 3.484375 1.265625 3.753906 1.175781 3.695312 0.890625 L 3.203125 -2.644531 C 3.1875 -2.769531 3.09375 -2.851562 2.980469 -2.890625 Z M 2.664062 -1.976562 L 2.851562 -0.558594 L 1.640625 -0.976562 Z M 2.664062 -1.976562 "/></g></g></g><g fill="#ffffff" fill-opacity="1"><g transform="translate(49.847793, 19.446559)"><g><path d="M 4.054688 -1.582031 L 3.152344 0.0234375 L 2.984375 0.371094 L 2.5625 -2.546875 C 2.539062 -2.691406 2.480469 -2.789062 2.355469 -2.859375 C 2.195312 -2.949219 1.992188 -2.925781 1.878906 -2.726562 L 0.414062 -0.117188 C 0.308594 0.0703125 0.410156 0.230469 0.5625 0.316406 C 0.707031 0.398438 0.902344 0.402344 1.007812 0.21875 L 1.886719 -1.351562 L 2.023438 -1.640625 L 2.449219 1.183594 C 2.464844 1.304688 2.550781 1.433594 2.664062 1.496094 C 2.832031 1.589844 3.054688 1.585938 3.167969 1.386719 L 4.648438 -1.25 C 4.746094 -1.417969 4.648438 -1.574219 4.496094 -1.65625 C 4.347656 -1.742188 4.144531 -1.742188 4.054688 -1.582031 Z M 4.054688 -1.582031 "/></g></g></g><g fill="#ffffff" fill-opacity="1"><g transform="translate(53.875616, 21.793438)"><g><path d="M 2.671875 1.445312 L 1.125 0.179688 L 1.726562 -0.554688 L 3.195312 0.644531 C 3.347656 0.769531 3.511719 0.726562 3.597656 0.617188 C 3.6875 0.507812 3.699219 0.332031 3.550781 0.207031 L 2.082031 -0.992188 L 2.714844 -1.765625 L 4.261719 -0.503906 C 4.414062 -0.378906 4.59375 -0.425781 4.679688 -0.53125 C 4.769531 -0.644531 4.777344 -0.804688 4.617188 -0.9375 L 2.859375 -2.375 C 2.679688 -2.519531 2.46875 -2.496094 2.351562 -2.351562 L 0.472656 -0.0546875 C 0.355469 0.0898438 0.371094 0.304688 0.550781 0.449219 L 2.308594 1.886719 C 2.472656 2.023438 2.640625 1.980469 2.726562 1.875 C 2.820312 1.761719 2.828125 1.570312 2.671875 1.445312 Z M 2.671875 1.445312 "/></g></g></g><g fill="#ffffff" fill-opacity="1"><g transform="translate(57.235547, 24.692503)"><g/></g></g><g fill="#ffffff" fill-opacity="1"><g transform="translate(5.70506, 40.680199)"><g><path d="M 0.679688 -2.484375 L 0.152344 -1.765625 C 0.0585938 -1.621094 0.179688 -1.433594 0.320312 -1.433594 C 0.394531 -1.433594 0.457031 -1.460938 0.503906 -1.53125 L 0.675781 -1.757812 L 0.675781 -0.152344 C 0.675781 -0.0195312 0.785156 0.0390625 0.898438 0.0390625 C 1.003906 0.0390625 1.117188 -0.0195312 1.117188 -0.152344 L 1.117188 -2.367188 C 1.117188 -2.5 1.003906 -2.570312 0.882812 -2.570312 C 0.816406 -2.570312 0.734375 -2.542969 0.679688 -2.484375 Z M 0.679688 -2.484375 "/></g></g></g><g fill="#ffffff" fill-opacity="1"><g transform="translate(7.187823, 40.680199)"><g><path d="M 0.988281 -0.359375 C 0.828125 -0.359375 0.644531 -0.410156 0.542969 -0.53125 C 0.4375 -0.660156 0.0976562 -0.394531 0.203125 -0.257812 C 0.394531 -0.0273438 0.691406 0.0390625 0.984375 0.0390625 C 1.566406 0.0390625 1.980469 -0.332031 1.980469 -0.921875 L 1.980469 -1.71875 C 1.980469 -2.246094 1.515625 -2.570312 1.039062 -2.570312 C 0.523438 -2.570312 0.0429688 -2.203125 0.046875 -1.625 C 0.0507812 -1.085938 0.433594 -0.726562 1 -0.726562 C 1.179688 -0.726562 1.382812 -0.78125 1.542969 -0.902344 C 1.535156 -0.570312 1.339844 -0.359375 0.988281 -0.359375 Z M 1.039062 -2.179688 C 1.296875 -2.179688 1.527344 -2 1.527344 -1.714844 L 1.527344 -1.554688 C 1.527344 -1.324219 1.316406 -1.121094 0.996094 -1.121094 C 0.695312 -1.121094 0.492188 -1.324219 0.492188 -1.625 C 0.492188 -1.96875 0.753906 -2.179688 1.039062 -2.179688 Z M 1.039062 -2.179688 "/></g></g></g><g fill="#ffffff" fill-opacity="1"><g transform="translate(9.608748, 40.680199)"><g><path d="M 1.089844 -2.179688 C 1.246094 -2.179688 1.414062 -2.132812 1.527344 -2.023438 C 1.644531 -1.898438 1.953125 -2.179688 1.84375 -2.289062 C 1.648438 -2.488281 1.375 -2.570312 1.089844 -2.570312 C 0.507812 -2.570312 0.101562 -2.183594 0.101562 -1.511719 L 0.101562 -0.8125 C 0.101562 -0.316406 0.519531 0.0390625 1.042969 0.0390625 C 1.574219 0.0390625 2.039062 -0.324219 2.039062 -0.902344 C 2.035156 -1.441406 1.660156 -1.804688 1.105469 -1.804688 C 0.925781 -1.804688 0.714844 -1.753906 0.550781 -1.628906 C 0.589844 -1.953125 0.785156 -2.179688 1.089844 -2.179688 Z M 1.046875 -0.359375 C 0.78125 -0.359375 0.554688 -0.527344 0.554688 -0.8125 C 0.554688 -1.136719 0.730469 -1.402344 1.082031 -1.402344 C 1.378906 -1.402344 1.578125 -1.199219 1.578125 -0.902344 C 1.578125 -0.566406 1.324219 -0.359375 1.046875 -0.359375 Z M 1.046875 -0.359375 "/></g></g></g><g fill="#ffffff" fill-opacity="1"><g transform="translate(12.041597, 40.680199)"><g><path d="M 0.0351562 -1.613281 L 0.0351562 -0.921875 C 0.0351562 -0.28125 0.511719 0.0390625 0.992188 0.0390625 C 1.480469 0.0390625 1.964844 -0.28125 1.960938 -0.921875 L 1.960938 -1.613281 C 1.960938 -2.25 1.480469 -2.570312 0.992188 -2.570312 C 0.511719 -2.570312 0.0351562 -2.25 0.0351562 -1.613281 Z M 1.511719 -1.613281 L 1.511719 -0.921875 C 1.511719 -0.511719 1.253906 -0.351562 0.988281 -0.351562 C 0.734375 -0.351562 0.480469 -0.53125 0.480469 -0.921875 L 0.480469 -1.613281 C 0.476562 -2.019531 0.734375 -2.183594 0.988281 -2.183594 C 1.253906 -2.183594 1.511719 -2.019531 1.511719 -1.613281 Z M 1.511719 -1.613281 "/></g></g></g><g fill="#ffffff" fill-opacity="1"><g transform="translate(60.308499, 41.063427)"><g><path d="M 0.851562 -0.390625 L 1.582031 -0.957031 C 1.847656 -1.167969 2.019531 -1.453125 1.976562 -1.835938 C 1.929688 -2.300781 1.511719 -2.570312 1.058594 -2.570312 C 0.582031 -2.570312 0.199219 -2.351562 0.136719 -1.859375 C 0.121094 -1.710938 0.242188 -1.621094 0.363281 -1.621094 C 0.464844 -1.621094 0.566406 -1.679688 0.582031 -1.804688 C 0.628906 -2.035156 0.820312 -2.175781 1.058594 -2.175781 C 1.296875 -2.175781 1.5 -2.046875 1.53125 -1.78125 C 1.5625 -1.582031 1.46875 -1.378906 1.300781 -1.261719 L 0.191406 -0.390625 C 0.132812 -0.34375 0.0976562 -0.277344 0.0976562 -0.222656 C 0.0976562 -0.109375 0.191406 -0.0117188 0.328125 0 L 1.804688 0 C 1.964844 0 2.039062 -0.0976562 2.039062 -0.199219 C 2.039062 -0.296875 1.957031 -0.402344 1.800781 -0.402344 L 1.128906 -0.402344 Z M 0.851562 -0.390625 "/></g></g></g><g fill="#ffffff" fill-opacity="1"><g transform="translate(62.765202, 41.063427)"><g><path d="M 0.0351562 -1.613281 L 0.0351562 -0.921875 C 0.0351562 -0.28125 0.511719 0.0390625 0.992188 0.0390625 C 1.480469 0.0390625 1.964844 -0.28125 1.960938 -0.921875 L 1.960938 -1.613281 C 1.960938 -2.25 1.480469 -2.570312 0.992188 -2.570312 C 0.511719 -2.570312 0.0351562 -2.25 0.0351562 -1.613281 Z M 1.511719 -1.613281 L 1.511719 -0.921875 C 1.511719 -0.511719 1.253906 -0.351562 0.988281 -0.351562 C 0.734375 -0.351562 0.480469 -0.53125 0.480469 -0.921875 L 0.480469 -1.613281 C 0.476562 -2.019531 0.734375 -2.183594 0.988281 -2.183594 C 1.253906 -2.183594 1.511719 -2.019531 1.511719 -1.613281 Z M 1.511719 -1.613281 "/></g></g></g><g fill="#ffffff" fill-opacity="1"><g transform="translate(65.094697, 41.063427)"><g><path d="M 0.851562 -0.390625 L 1.582031 -0.957031 C 1.847656 -1.167969 2.019531 -1.453125 1.976562 -1.835938 C 1.929688 -2.300781 1.511719 -2.570312 1.058594 -2.570312 C 0.582031 -2.570312 0.199219 -2.351562 0.136719 -1.859375 C 0.121094 -1.710938 0.242188 -1.621094 0.363281 -1.621094 C 0.464844 -1.621094 0.566406 -1.679688 0.582031 -1.804688 C 0.628906 -2.035156 0.820312 -2.175781 1.058594 -2.175781 C 1.296875 -2.175781 1.5 -2.046875 1.53125 -1.78125 C 1.5625 -1.582031 1.46875 -1.378906 1.300781 -1.261719 L 0.191406 -0.390625 C 0.132812 -0.34375 0.0976562 -0.277344 0.0976562 -0.222656 C 0.0976562 -0.109375 0.191406 -0.0117188 0.328125 0 L 1.804688 0 C 1.964844 0 2.039062 -0.0976562 2.039062 -0.199219 C 2.039062 -0.296875 1.957031 -0.402344 1.800781 -0.402344 L 1.128906 -0.402344 Z M 0.851562 -0.390625 "/></g></g></g><g fill="#ffffff" fill-opacity="1"><g transform="translate(67.551399, 41.063427)"><g><path d="M 0.851562 -0.390625 L 1.582031 -0.957031 C 1.847656 -1.167969 2.019531 -1.453125 1.976562 -1.835938 C 1.929688 -2.300781 1.511719 -2.570312 1.058594 -2.570312 C 0.582031 -2.570312 0.199219 -2.351562 0.136719 -1.859375 C 0.121094 -1.710938 0.242188 -1.621094 0.363281 -1.621094 C 0.464844 -1.621094 0.566406 -1.679688 0.582031 -1.804688 C 0.628906 -2.035156 0.820312 -2.175781 1.058594 -2.175781 C 1.296875 -2.175781 1.5 -2.046875 1.53125 -1.78125 C 1.5625 -1.582031 1.46875 -1.378906 1.300781 -1.261719 L 0.191406 -0.390625 C 0.132812 -0.34375 0.0976562 -0.277344 0.0976562 -0.222656 C 0.0976562 -0.109375 0.191406 -0.0117188 0.328125 0 L 1.804688 0 C 1.964844 0 2.039062 -0.0976562 2.039062 -0.199219 C 2.039062 -0.296875 1.957031 -0.402344 1.800781 -0.402344 L 1.128906 -0.402344 Z M 0.851562 -0.390625 "/></g></g></g><g fill="#ffffff" fill-opacity="1"><g transform="translate(19.565158, 55.467723)"><g><path d="M 1.289062 -0.09375 L 1.855469 0.402344 C 2.511719 0.984375 3.210938 0.96875 3.675781 0.441406 C 4.164062 -0.113281 4.109375 -0.816406 3.457031 -1.390625 L 2.65625 -2.097656 C 2.53125 -2.207031 2.359375 -2.214844 2.25 -2.09375 L 0.398438 0.00390625 C 0.285156 0.132812 0.335938 0.296875 0.449219 0.398438 C 0.5625 0.496094 0.734375 0.535156 0.855469 0.398438 Z M 2.539062 -1.511719 L 3.121094 -1 C 3.492188 -0.671875 3.511719 -0.273438 3.230469 0.046875 C 2.964844 0.34375 2.582031 0.351562 2.199219 0.015625 L 1.632812 -0.484375 Z M 2.539062 -1.511719 "/></g></g></g><g fill="#ffffff" fill-opacity="1"><g transform="translate(23.035263, 58.399284)"><g><path d="M 2.835938 1.148438 L 2.648438 0.257812 C 3.179688 0.410156 3.605469 0.21875 3.867188 -0.199219 C 4.195312 -0.734375 4.054688 -1.410156 3.257812 -1.902344 L 2.265625 -2.515625 C 2.113281 -2.609375 1.949219 -2.582031 1.863281 -2.441406 L 0.398438 -0.0664062 C 0.308594 0.078125 0.382812 0.234375 0.515625 0.320312 C 0.640625 0.394531 0.824219 0.398438 0.917969 0.246094 L 1.351562 -0.457031 L 2.023438 -0.0429688 L 2.292969 1.300781 C 2.367188 1.675781 2.929688 1.601562 2.835938 1.148438 Z M 1.617188 -0.886719 L 2.246094 -1.90625 L 2.984375 -1.449219 C 3.402344 -1.191406 3.519531 -0.8125 3.34375 -0.515625 C 3.183594 -0.242188 2.832031 -0.136719 2.355469 -0.433594 Z M 1.617188 -0.886719 "/></g></g></g><g fill="#ffffff" fill-opacity="1"><g transform="translate(27.037924, 60.76653)"><g><path d="M 3.890625 -0.265625 C 4.265625 -1.222656 3.882812 -2.113281 2.933594 -2.484375 C 1.980469 -2.859375 1.085938 -2.464844 0.710938 -1.507812 C 0.335938 -0.546875 0.730469 0.339844 1.683594 0.714844 C 2.636719 1.085938 3.515625 0.695312 3.890625 -0.265625 Z M 1.878906 0.21875 C 1.265625 -0.0234375 1.03125 -0.625 1.285156 -1.28125 C 1.546875 -1.945312 2.128906 -2.226562 2.742188 -1.988281 C 3.351562 -1.75 3.582031 -1.148438 3.320312 -0.488281 C 3.066406 0.171875 2.488281 0.457031 1.878906 0.21875 Z M 1.878906 0.21875 "/></g></g></g><g fill="#ffffff" fill-opacity="1"><g transform="translate(31.838967, 62.498801)"><g><path d="M 1.066406 -0.734375 L 1.804688 -0.589844 C 2.667969 -0.421875 3.257812 -0.785156 3.394531 -1.476562 C 3.535156 -2.199219 3.132812 -2.78125 2.28125 -2.945312 L 1.234375 -3.152344 C 1.070312 -3.183594 0.917969 -3.101562 0.886719 -2.941406 L 0.347656 -0.199219 C 0.316406 -0.0273438 0.441406 0.0859375 0.589844 0.117188 C 0.734375 0.144531 0.902344 0.09375 0.9375 -0.0859375 Z M 1.429688 -2.585938 L 2.1875 -2.4375 C 2.675781 -2.34375 2.894531 -2.011719 2.808594 -1.589844 C 2.734375 -1.199219 2.40625 -1 1.902344 -1.097656 L 1.164062 -1.242188 Z M 1.429688 -2.585938 "/></g></g></g><g fill="#ffffff" fill-opacity="1"><g transform="translate(36.311801, 63.27305)"><g><path d="M 2.734375 -0.453125 L 0.914062 -0.5 L 0.933594 -1.367188 L 2.664062 -1.324219 C 2.847656 -1.320312 2.9375 -1.441406 2.941406 -1.566406 C 2.945312 -1.699219 2.855469 -1.832031 2.675781 -1.835938 L 0.949219 -1.878906 L 0.96875 -2.792969 L 2.792969 -2.746094 C 2.972656 -2.742188 3.074219 -2.875 3.078125 -3 C 3.082031 -3.132812 2.996094 -3.253906 2.808594 -3.261719 L 0.734375 -3.3125 C 0.523438 -3.316406 0.382812 -3.179688 0.378906 -3.011719 L 0.3125 -0.304688 C 0.308594 -0.132812 0.4375 0.0117188 0.648438 0.015625 L 2.722656 0.0703125 C 2.917969 0.0742188 3.011719 -0.046875 3.015625 -0.175781 C 3.019531 -0.304688 2.917969 -0.449219 2.734375 -0.453125 Z M 2.734375 -0.453125 "/></g></g></g><g fill="#ffffff" fill-opacity="1"><g transform="translate(40.848954, 63.291175)"><g><path d="M 2.910156 -0.941406 L 2.195312 -1.503906 C 2.703125 -1.730469 2.90625 -2.148438 2.835938 -2.636719 C 2.742188 -3.257812 2.199219 -3.683594 1.273438 -3.550781 L 0.121094 -3.382812 C -0.0546875 -3.355469 -0.164062 -3.230469 -0.140625 -3.070312 L 0.261719 -0.308594 C 0.285156 -0.136719 0.445312 -0.0664062 0.601562 -0.0859375 C 0.746094 -0.109375 0.886719 -0.222656 0.859375 -0.398438 L 0.742188 -1.21875 L 1.523438 -1.332031 L 2.59375 -0.476562 C 2.890625 -0.234375 3.273438 -0.65625 2.910156 -0.941406 Z M 0.667969 -1.71875 L 0.496094 -2.902344 L 1.355469 -3.027344 C 1.84375 -3.097656 2.175781 -2.882812 2.230469 -2.542969 C 2.285156 -2.230469 2.082031 -1.925781 1.527344 -1.84375 Z M 0.667969 -1.71875 "/></g></g></g><g fill="#ffffff" fill-opacity="1"><g transform="translate(45.405281, 62.515305)"><g><path d="M 1.566406 -3.996094 L -0.859375 -3.222656 C -1.050781 -3.160156 -1.097656 -3.003906 -1.054688 -2.875 C -1.015625 -2.75 -0.890625 -2.648438 -0.695312 -2.707031 L 0.226562 -3.003906 L 0.992188 -0.605469 C 1.046875 -0.429688 1.226562 -0.390625 1.363281 -0.4375 C 1.496094 -0.476562 1.632812 -0.613281 1.574219 -0.792969 L 0.804688 -3.1875 L 1.730469 -3.484375 C 1.921875 -3.542969 1.984375 -3.707031 1.945312 -3.832031 C 1.902344 -3.960938 1.757812 -4.054688 1.566406 -3.996094 Z M 1.566406 -3.996094 "/></g></g></g><g fill="#ffffff" fill-opacity="1"><g transform="translate(49.361711, 61.121732)"><g><path d="M -1.054688 -2.871094 L 0.101562 -0.339844 C 0.179688 -0.175781 0.347656 -0.160156 0.488281 -0.222656 C 0.628906 -0.285156 0.734375 -0.433594 0.660156 -0.59375 L -0.496094 -3.125 C -0.578125 -3.300781 -0.757812 -3.316406 -0.894531 -3.253906 C -1.039062 -3.1875 -1.132812 -3.046875 -1.054688 -2.871094 Z M -1.054688 -2.871094 "/></g></g></g><g fill="#ffffff" fill-opacity="1"><g transform="translate(51.434129, 60.17318)"><g><path d="M 2.042969 -1.875 L 0.488281 -0.917969 L 0.0351562 -1.65625 L 1.503906 -2.566406 C 1.660156 -2.660156 1.671875 -2.816406 1.605469 -2.921875 C 1.535156 -3.03125 1.386719 -3.09375 1.234375 -3 L -0.234375 -2.089844 L -0.714844 -2.871094 L 0.835938 -3.828125 C 0.988281 -3.921875 1 -4.089844 0.933594 -4.195312 C 0.863281 -4.308594 0.726562 -4.363281 0.566406 -4.265625 L -1.199219 -3.171875 C -1.378906 -3.0625 -1.417969 -2.871094 -1.332031 -2.730469 L 0.09375 -0.425781 C 0.183594 -0.28125 0.375 -0.230469 0.550781 -0.339844 L 2.316406 -1.433594 C 2.480469 -1.535156 2.496094 -1.691406 2.429688 -1.796875 C 2.359375 -1.90625 2.199219 -1.972656 2.042969 -1.875 Z M 2.042969 -1.875 "/></g></g></g><g fill="#ffffff" fill-opacity="1"><g transform="translate(55.23883, 57.704841)"><g><path d="M -0.496094 -0.617188 C 0.0703125 -0.242188 0.820312 -0.652344 1.226562 -1.011719 C 1.71875 -1.445312 2.25 -2.222656 1.703125 -2.84375 C 1.152344 -3.46875 0.542969 -2.972656 -0.046875 -2.542969 C -0.457031 -2.234375 -0.8125 -1.972656 -1.039062 -2.230469 C -1.277344 -2.503906 -0.921875 -2.949219 -0.710938 -3.136719 C -0.46875 -3.347656 -0.0898438 -3.628906 0.21875 -3.46875 C 0.3125 -3.425781 0.429688 -3.457031 0.515625 -3.535156 C 0.648438 -3.652344 0.6875 -3.878906 0.515625 -3.988281 C -0.0507812 -4.253906 -0.675781 -3.914062 -1.082031 -3.554688 C -1.574219 -3.121094 -1.984375 -2.355469 -1.511719 -1.816406 C -0.984375 -1.222656 -0.3125 -1.683594 0.257812 -2.109375 C 0.632812 -2.390625 1.015625 -2.671875 1.234375 -2.425781 C 1.507812 -2.117188 1.136719 -1.664062 0.863281 -1.421875 C 0.601562 -1.191406 0.1875 -0.933594 -0.121094 -1.113281 C -0.230469 -1.195312 -0.371094 -1.164062 -0.472656 -1.074219 C -0.609375 -0.953125 -0.667969 -0.734375 -0.496094 -0.617188 Z M -0.496094 -0.617188 "/></g></g></g></svg>